<?xml version="1.0" standalone="no"?>
<svg xmlns:xlink="http://www.w3.org/1999/xlink" id="wave" style="transform:rotate(180deg); transition: 0.3s" viewBox="0 0 1440 100" version="1.1" xmlns="http://www.w3.org/2000/svg"><defs><linearGradient id="sw-gradient-0" x1="0" x2="0" y1="1" y2="0"><stop stop-color="rgba(255, 249, 234, 1)" offset="0%"/><stop stop-color="rgba(255, 249, 234, 1)" offset="100%"/></linearGradient></defs><path style="transform:translate(0, 0px); opacity:1" fill="url(#sw-gradient-0)" d="M0,70L21.8,60C43.6,50,87,30,131,26.7C174.5,23,218,37,262,43.3C305.5,50,349,50,393,56.7C436.4,63,480,77,524,81.7C567.3,87,611,83,655,73.3C698.2,63,742,47,785,36.7C829.1,27,873,23,916,20C960,17,1004,13,1047,16.7C1090.9,20,1135,30,1178,36.7C1221.8,43,1265,47,1309,45C1352.7,43,1396,37,1440,40C1483.6,43,1527,57,1571,58.3C1614.5,60,1658,50,1702,45C1745.5,40,1789,40,1833,41.7C1876.4,43,1920,47,1964,48.3C2007.3,50,2051,50,2095,53.3C2138.2,57,2182,63,2225,65C2269.1,67,2313,63,2356,63.3C2400,63,2444,67,2487,71.7C2530.9,77,2575,83,2618,75C2661.8,67,2705,43,2749,28.3C2792.7,13,2836,7,2880,10C2923.6,13,2967,27,3011,38.3C3054.5,50,3098,60,3120,65L3141.8,70L3141.8,100L3120,100C3098.2,100,3055,100,3011,100C2967.3,100,2924,100,2880,100C2836.4,100,2793,100,2749,100C2705.5,100,2662,100,2618,100C2574.5,100,2531,100,2487,100C2443.6,100,2400,100,2356,100C2312.7,100,2269,100,2225,100C2181.8,100,2138,100,2095,100C2050.9,100,2007,100,1964,100C1920,100,1876,100,1833,100C1789.1,100,1745,100,1702,100C1658.2,100,1615,100,1571,100C1527.3,100,1484,100,1440,100C1396.4,100,1353,100,1309,100C1265.5,100,1222,100,1178,100C1134.5,100,1091,100,1047,100C1003.6,100,960,100,916,100C872.7,100,829,100,785,100C741.8,100,698,100,655,100C610.9,100,567,100,524,100C480,100,436,100,393,100C349.1,100,305,100,262,100C218.2,100,175,100,131,100C87.3,100,44,100,22,100L0,100Z"/></svg>